<?xml version="1.0" standalone="no"?>
<!DOCTYPE svg PUBLIC "-//W3C//DTD SVG 20010904//EN"
 "http://www.w3.org/TR/2001/REC-SVG-20010904/DTD/svg10.dtd">
<svg version="1.0" xmlns="http://www.w3.org/2000/svg"
 width="500.000000pt" height="500.000000pt" viewBox="0 0 500.000000 500.000000"
 preserveAspectRatio="xMidYMid meet">
<metadata>
Created by potrace 1.11, written by Peter Selinger 2001-2013
</metadata>
<g transform="translate(0.000000,500.000000) scale(0.100000,-0.100000)"
fill="#000000" stroke="none">
<path d="M1320 4489 c-228 -21 -441 -122 -574 -271 -25 -27 -62 -83 -82 -124
-32 -64 -37 -85 -43 -171 -3 -54 -4 -773 -1 -1598 l5 -1500 33 -68 c65 -132
193 -226 337 -247 39 -5 116 -10 173 -10 l102 0 0 1555 0 1555 505 0 505 0 0
-1079 0 -1079 31 -31 c42 -42 105 -44 148 -3 17 15 107 143 201 286 96 144
175 255 180 250 4 -5 83 -124 175 -264 92 -140 179 -265 193 -277 19 -16 40
-23 71 -23 36 0 49 6 77 34 l34 34 0 1076 c0 592 2 1076 5 1076 3 0 34 -9 68
-21 119 -40 201 -125 243 -249 18 -52 19 -122 22 -1205 2 -748 -1 -1180 -7
-1235 -23 -183 -140 -326 -311 -381 l-55 -18 65 0 c220 -1 372 74 463 229 59
102 57 47 57 1435 0 1369 2 1324 -51 1427 -30 58 -119 150 -177 181 -64 35
-160 57 -249 57 l-72 0 -3 113 -3 112 -552 3 -553 2 0 -115 0 -115 -575 0
c-618 0 -615 0 -661 51 -31 35 -47 94 -40 147 17 126 130 210 320 238 73 11
328 14 1271 14 1271 0 1234 1 1337 -51 58 -30 150 -119 181 -177 59 -108 57
-58 57 -1494 0 -937 3 -1318 11 -1318 25 0 131 122 162 187 l32 68 3 1240 c2
883 0 1257 -8 1300 -29 156 -146 314 -286 387 -147 77 -42 72 -1434 74 -685 1
-1283 -2 -1330 -7z"/>
</g>
</svg>
